<?xml version="1.0" encoding="UTF-8"?>
<svg width="300px" height="300px" viewBox="0 0 300 300" xmlns="http://www.w3.org/2000/svg" xmlns:xlink="http://www.w3.org/1999/xlink" version="1.1">
 <!-- Generated by Pixelmator Pro 1.4 -->
 <path id="path" d="M67.912 11.287 C59.325 15.712 36.3 27.487 10.95 40.425 5.362 43.275 0.562 45.75 0.337 45.975 0 46.275 -0.075 68.813 0 130.462 0.15 210.3 0.187 214.613 0.862 215.1 1.275 215.4 2.775 216.225 4.237 216.975 5.7 217.725 10.012 219.9 13.8 221.887 22.237 226.237 29.662 230.063 39.825 235.313 48.337 239.662 55.987 243.6 67.012 249.3 70.987 251.362 74.4 252.937 74.625 252.787 74.887 252.638 75.037 237.563 75.037 211.275 75.037 184.95 75.187 169.95 75.45 169.762 75.637 169.65 79.575 171.412 84.075 173.737 92.849 178.237 102.562 183.263 111.862 188.062 115.012 189.675 120.675 192.638 124.462 194.587 128.287 196.537 134.212 199.65 137.7 201.412 141.187 203.175 145.162 205.238 146.587 205.912 148.687 206.962 149.099 207.3 148.912 207.975 148.612 209.1 148.65 279.037 148.95 286.087 149.099 289.237 149.362 291.938 149.55 292.162 149.737 292.35 154.875 289.987 161.887 286.462 168.525 283.125 180.487 277.087 188.438 273.037 196.462 269.025 207.6 263.4 213.187 260.55 218.812 257.7 223.612 255.375 223.837 255.375 224.287 255.375 256.875 239.25 262.612 236.213 262.95 236.062 271.2 231.938 280.912 227.1 290.625 222.262 298.95 217.987 299.287 217.65 299.962 217.05 300.037 213.975 299.962 164.063 299.925 134.925 299.775 96.787 299.625 79.237 L299.362 47.325 297.975 46.537 C297.188 46.087 293.7 44.25 290.25 42.487 286.762 40.688 282.262 38.325 280.237 37.275 278.25 36.225 274.05 34.012 270.938 32.437 267.862 30.825 263.438 28.537 261.187 27.337 258.937 26.1 254.737 23.925 251.775 22.425 248.887 20.925 244.2 18.487 241.387 17.025 238.575 15.562 234.75 13.575 232.837 12.6 230.925 11.625 228.562 10.35 227.587 9.787 226.612 9.262 225.487 8.813 225.075 8.813 224.662 8.813 221.437 10.313 217.912 12.113 214.387 13.95 207.15 17.662 201.787 20.362 196.5 23.062 188.887 26.962 184.912 28.988 180.974 31.012 171.862 35.662 164.7 39.338 157.537 42.975 151.275 46.2 150.787 46.537 149.962 47.062 149.737 47.062 148.537 46.35 147.112 45.487 143.362 43.5 133.987 38.625 130.725 36.975 126.45 34.725 124.425 33.675 120.562 31.65 113.812 28.125 104.7 23.438 98.925 20.437 93.187 17.475 85.313 13.275 82.65 11.887 79.35 10.2 77.925 9.412 76.5 8.662 75.037 8.062 74.662 8.1 74.325 8.137 71.325 9.6 67.912 11.287 Z M151.125 48.075 C152.55 48.862 163.687 54.637 170.025 57.937 175.687 60.863 182.025 64.2 188.925 67.837 191.287 69.075 195.675 71.325 198.675 72.937 201.675 74.475 206.287 76.875 208.837 78.225 211.387 79.575 215.362 81.6 217.612 82.8 219.9 83.925 222.188 85.238 222.75 85.688 L223.8 86.475 224.099 127.987 C224.4 167.962 224.362 169.537 223.612 170.175 223.2 170.55 213.375 175.612 201.712 181.537 190.087 187.387 174.9 195.112 167.962 198.675 161.062 202.2 155.062 205.2 154.724 205.35 154.387 205.462 153.45 205.912 152.662 206.362 149.737 207.9 149.962 211.612 149.625 165.15 L149.25 123.15 143.137 120 C139.8 118.275 134.4 115.537 131.137 113.85 127.875 112.162 122.137 109.2 118.312 107.25 108.862 102.337 100.462 98.025 92.475 93.862 78.412 86.625 76.8 85.8 76.5 85.5 75.974 84.975 77.737 83.962 86.4 79.613 94.237 75.637 98.325 73.575 120.375 62.287 143.325 50.588 149.137 47.625 149.625 47.625 149.925 47.55 150.562 47.775 151.125 48.075 Z" fill="#000000" fill-opacity="1" stroke="none"/>
</svg>
