<?xml version="1.0" encoding="UTF-8"?>
<svg width="400px" height="400px" viewBox="0 0 400 400" xmlns="http://www.w3.org/2000/svg" xmlns:xlink="http://www.w3.org/1999/xlink" version="1.1">
 <!-- Generated by Pixelmator Pro 1.4 -->
 <path id="path" d="M117.912 61.287 C109.325 65.712 86.3 77.487 60.95 90.425 55.362 93.275 50.562 95.75 50.337 95.975 50 96.275 49.925 118.813 50 180.462 50.15 260.3 50.187 264.613 50.862 265.1 51.275 265.4 52.775 266.225 54.237 266.975 55.7 267.725 60.012 269.9 63.8 271.887 72.237 276.237 79.662 280.063 89.825 285.313 98.337 289.662 105.987 293.6 117.012 299.3 120.987 301.362 124.4 302.937 124.625 302.787 124.887 302.638 125.037 287.563 125.037 261.275 125.037 234.95 125.187 219.95 125.45 219.762 125.637 219.65 129.575 221.412 134.075 223.737 142.849 228.237 152.562 233.263 161.862 238.062 165.012 239.675 170.675 242.638 174.462 244.587 178.287 246.537 184.212 249.65 187.7 251.412 191.187 253.175 195.162 255.238 196.587 255.912 198.687 256.962 199.099 257.3 198.912 257.975 198.612 259.1 198.65 329.037 198.95 336.087 199.099 339.237 199.362 341.938 199.55 342.162 199.737 342.35 204.875 339.987 211.887 336.462 218.525 333.125 230.487 327.087 238.438 323.037 246.462 319.025 257.6 313.4 263.187 310.55 268.812 307.7 273.612 305.375 273.837 305.375 274.287 305.375 306.875 289.25 312.612 286.213 312.95 286.062 321.2 281.938 330.912 277.1 340.625 272.262 348.95 267.987 349.287 267.65 349.962 267.05 350.037 263.975 349.962 214.063 349.925 184.925 349.775 146.787 349.625 129.237 L349.362 97.325 347.975 96.537 C347.188 96.087 343.7 94.25 340.25 92.487 336.762 90.688 332.262 88.325 330.237 87.275 328.25 86.225 324.05 84.012 320.938 82.437 317.862 80.825 313.438 78.537 311.187 77.337 308.937 76.1 304.737 73.925 301.775 72.425 298.887 70.925 294.2 68.487 291.387 67.025 288.575 65.562 284.75 63.575 282.837 62.6 280.925 61.625 278.562 60.35 277.587 59.787 276.612 59.262 275.487 58.813 275.075 58.813 274.662 58.813 271.437 60.313 267.912 62.113 264.387 63.95 257.15 67.662 251.787 70.362 246.5 73.062 238.887 76.962 234.912 78.988 230.974 81.012 221.862 85.662 214.7 89.338 207.537 92.975 201.275 96.2 200.787 96.537 199.962 97.062 199.737 97.062 198.537 96.35 197.112 95.487 193.362 93.5 183.987 88.625 180.725 86.975 176.45 84.725 174.425 83.675 170.562 81.65 163.812 78.125 154.7 73.438 148.925 70.437 143.187 67.475 135.313 63.275 132.65 61.887 129.35 60.2 127.925 59.412 126.5 58.662 125.037 58.062 124.662 58.1 124.325 58.137 121.325 59.6 117.912 61.287 Z M201.125 98.075 C202.55 98.862 213.687 104.637 220.025 107.937 225.687 110.863 232.025 114.2 238.925 117.837 241.287 119.075 245.675 121.325 248.675 122.937 251.675 124.475 256.287 126.875 258.837 128.225 261.387 129.575 265.362 131.6 267.612 132.8 269.9 133.925 272.188 135.238 272.75 135.688 L273.8 136.475 274.099 177.987 C274.4 217.962 274.362 219.537 273.612 220.175 273.2 220.55 263.375 225.612 251.712 231.537 240.087 237.387 224.9 245.112 217.962 248.675 211.062 252.2 205.062 255.2 204.724 255.35 204.387 255.462 203.45 255.912 202.662 256.362 199.737 257.9 199.962 261.612 199.625 215.15 L199.25 173.15 193.137 170 C189.8 168.275 184.4 165.537 181.137 163.85 177.875 162.162 172.137 159.2 168.312 157.25 158.862 152.337 150.462 148.025 142.475 143.862 128.412 136.625 126.8 135.8 126.5 135.5 125.974 134.975 127.737 133.962 136.4 129.613 144.237 125.637 148.325 123.575 170.375 112.287 193.325 100.588 199.137 97.625 199.625 97.625 199.925 97.55 200.562 97.775 201.125 98.075 Z" fill="#000000" fill-opacity="1" stroke="none"/>
</svg>
