<?xml version="1.0" encoding="UTF-8"?>
<svg width="22px" height="33px" viewBox="0 0 22 33" xmlns="http://www.w3.org/2000/svg" xmlns:xlink="http://www.w3.org/1999/xlink" version="1.1">
 <!-- Generated by Pixelmator Pro 1.3.2 -->
 <path id="path" d="M9.575 1.125 L0.275 10.425 C-0.325 11.025 -0.325 11.925 0.275 12.525 0.875 13.125 1.775 13.125 2.375 12.525 L9.075 5.825 9.075 31.625 C9.075 32.425 9.775 33.125 10.575 33.125 11.375 33.125 12.075 32.425 12.075 31.625 L12.075 5.825 18.775 12.525 C19.375 13.125 20.275 13.125 20.875 12.525 21.175 12.225 21.275 11.825 21.275 11.425 21.275 11.025 21.175 10.625 20.875 10.325 L11.575 1.025 C11.275 0.725 10.875 0.625 10.475 0.625 10.075 0.625 9.875 0.825 9.575 1.125 Z" fill="#494a4f" fill-opacity="1" stroke="none"/>
</svg>
